<svg width="54" height="54" viewBox="0 0 54 54" fill="none" xmlns="http://www.w3.org/2000/svg">
<path d="M1.68746 16.8749H52.3124C53.2439 16.8749 53.9999 16.1189 53.9999 15.1875C53.9999 14.2559 53.2438 13.5 52.3124 13.5H1.68746C0.755919 13.5 0 14.2561 0 15.1875C0 16.1189 0.756059 16.8749 1.68746 16.8749Z" fill="#ffd940"/>
<path d="M52.3124 25.3125H1.68746C0.755919 25.3125 0 26.0686 0 26.9999C0 27.9313 0.756059 28.6874 1.68746 28.6874H52.3124C53.2439 28.6874 53.9999 27.9313 53.9999 26.9999C53.9999 26.0686 53.2439 25.3125 52.3124 25.3125Z" fill="#ffd940"/>
<path d="M52.3124 37.125H18.5625C17.6309 37.125 16.875 37.8811 16.875 38.8125C16.875 39.744 17.6311 40.4999 18.5625 40.4999H52.3124C53.244 40.4999 53.9999 39.7439 53.9999 38.8125C54 37.8809 53.244 37.125 52.3124 37.125Z" fill="#ffd940"/>
</svg>
