<svg width="54" height="54" viewBox="0 0 54 54" fill="none" xmlns="http://www.w3.org/2000/svg">
<path d="M1.68746 11.8125H52.3124C53.2439 11.8125 53.9999 11.0565 53.9999 10.1251C53.9999 9.19354 53.2438 8.43762 52.3124 8.43762H1.68746C0.756059 8.43762 0 9.19354 0 10.1251C0 11.0566 0.756059 11.8125 1.68746 11.8125Z" fill="white"/>
<path d="M52.3124 25.3126H1.68746C0.755919 25.3126 0 26.0687 0 27.0001C0 27.9315 0.756059 28.6875 1.68746 28.6875H52.3124C53.2439 28.6875 53.9999 27.9315 53.9999 27.0001C53.9999 26.0687 53.2439 25.3126 52.3124 25.3126Z" fill="white"/>
<path d="M52.3124 42.1876H1.68746C0.755919 42.1876 0 42.9437 0 43.8751C0 44.8066 0.756059 45.5625 1.68746 45.5625H52.3124C53.2439 45.5625 53.9999 44.8065 53.9999 43.8751C54 42.9435 53.2439 42.1876 52.3124 42.1876Z" fill="white"/>
</svg>
